# xmcd CD database file
#
# Track frame offsets:
#	150
#	23901
#	39680
#	57779
#	75090
#	90319
#	101134
#	115728
#	135306
#	150810
#	165148
#	179995
#	197048
#	209535
#	227556
#	243830
#	256083
#	277419
#	290969
#	305951
#
# Disc length: 4274 seconds
#
# Revision: 0
# Processed by: cddbd v1.5.2PL0 Copyright (c) Steve Scherf et al.
# Submitted via: CDex 1.70beta2
#
DISCID=0f10b014
DTITLE=Rick Nelson - The last time around CD 2
DYEAR=2010
DGENRE=Country
TTITLE0=Palace guard (long version)
TTITLE1=So long mama
TTITLE2=I'm talking about you (Version 2)
TTITLE3=Garden party
TTITLE4=Don't let your goodbye stand
TTITLE5=I wanna be with you
TTITLE6=A flower opens gently by
TTITLE7=Let it bring along
TTITLE8=Are you really real
TTITLE9=Nightime lady
TTITLE10=Legacy
TTITLE11=Evil woman child
TTITLE12=Don't leave me here
TTITLE13=Someone to love
TTITLE14=Wild nights in Tulsa
TTITLE15=Lifestream
TTITLE16=How many times
TTITLE17=Windfall
TTITLE18=One night stand
TTITLE19=I don't want to be lonely tonight
EXTD=YEAR: 2010
EXTT0=
EXTT1=
EXTT2=
EXTT3=
EXTT4=
EXTT5=
EXTT6=
EXTT7=
EXTT8=
EXTT9=
EXTT10=
EXTT11=
EXTT12=
EXTT13=
EXTT14=
EXTT15=
EXTT16=
EXTT17=
EXTT18=
EXTT19=
PLAYORDER=
